<?xml version="1.0" standalone="no"?>
<!DOCTYPE svg PUBLIC "-//W3C//DTD SVG 20010904//EN"
 "http://www.w3.org/TR/2001/REC-SVG-20010904/DTD/svg10.dtd">
<svg version="1.0" xmlns="http://www.w3.org/2000/svg"
 width="96.000000pt" height="96.000000pt" viewBox="0 0 96.000000 96.000000"
 preserveAspectRatio="xMidYMid meet">
<metadata>
Created by potrace 1.16, written by Peter Selinger 2001-2019
</metadata>
<g transform="translate(0.000000,96.000000) scale(0.100000,-0.100000)"
fill="#000000" stroke="none">
<path d="M0 480 l0 -480 480 0 480 0 0 480 0 480 -480 0 -480 0 0 -480z m561
398 c3 -18 6 -24 27 -58 l22 -35 -66 -3 -67 -3 6 -82 c4 -45 7 -136 7 -201 l0
-119 38 59 c66 102 121 132 187 104 l20 -9 -20 -1 c-17 0 -15 -4 13 -28 21
-18 34 -39 38 -62 5 -31 -1 -44 -48 -108 -29 -41 -74 -104 -100 -140 -43 -61
-73 -92 -88 -92 -3 0 16 23 42 51 52 56 58 69 29 69 -10 0 -24 6 -30 14 -10
12 -8 13 8 9 39 -10 79 17 119 81 21 33 42 70 46 80 7 20 7 20 -15 0 -21 -19
-21 -19 -19 1 4 38 0 45 -29 45 -22 0 -34 -9 -55 -40 l-26 -40 25 -10 c31 -12
31 -21 1 -49 -17 -16 -31 -21 -46 -16 -17 5 -28 0 -51 -27 -39 -45 -61 -86
-53 -100 4 -7 3 -8 -4 -4 -7 4 -12 13 -12 20 0 14 77 126 94 138 17 12 -3 9
-26 -3 -25 -13 -35 -5 -18 16 7 8 10 15 7 15 -4 0 -24 -24 -46 -53 -22 -30
-46 -61 -54 -69 -15 -15 -12 -52 8 -101 4 -10 3 -17 -4 -17 -31 0 -42 133 -12
149 24 14 -6 44 -36 36 -17 -4 -31 2 -49 20 -14 15 -23 29 -19 33 4 4 15 -3
24 -14 13 -16 25 -21 46 -17 19 4 30 1 37 -11 12 -22 25 -20 39 6 10 18 8 24
-11 40 -12 10 -35 18 -50 18 -15 0 -33 7 -40 15 -11 13 -8 15 19 15 37 0 38 6
6 45 -14 17 -24 23 -23 15 2 -9 -3 -13 -12 -11 -23 5 -33 5 -64 -3 -23 -6 -27
-4 -23 7 4 11 0 13 -14 10 -23 -6 -25 9 -4 27 11 9 12 17 4 32 -13 24 2 38 42
38 40 0 90 -39 137 -109 l42 -63 0 87 c0 80 -2 90 -31 131 -39 58 -49 50 -14
-10 18 -30 24 -52 20 -66 -7 -21 -7 -21 -43 7 -20 15 -57 32 -82 39 l-45 11
-2 50 c-2 47 2 57 60 141 34 49 84 108 110 131 l48 41 40 -32 c21 -17 40 -35
40 -40z m60 -70 c16 -30 3 -20 -27 20 -23 30 -24 33 -5 17 13 -11 27 -28 32
-37z m39 -59 c15 -28 5 -23 -15 7 -9 15 -12 23 -6 20 6 -4 16 -16 21 -27z
m-304 -521 c-16 -9 -36 -3 -36 11 0 5 12 6 26 3 22 -4 24 -6 10 -14z m151
-134 c-3 -3 -12 -4 -19 -1 -8 3 -5 6 6 6 11 1 17 -2 13 -5z"/>
<path d="M584 487 c-28 -30 -59 -81 -45 -73 6 4 11 2 11 -3 0 -6 8 -11 18 -10
10 0 12 3 5 6 -15 6 -17 33 -3 33 10 0 44 59 37 66 -2 2 -13 -6 -23 -19z"/>
<path d="M278 473 c7 -3 16 -2 19 1 4 3 -2 6 -13 5 -11 0 -14 -3 -6 -6z"/>
<path d="M587 329 c7 -7 15 -10 18 -7 3 3 -2 9 -12 12 -14 6 -15 5 -6 -5z"/>
</g>
</svg>
